<svg id="Layer_1" data-name="Layer 1" xmlns="http://www.w3.org/2000/svg" viewBox="0 0 980.4 161.26"><defs><style>.cls-1{fill-rule:evenodd;}</style></defs><path class="cls-1" d="M4123.76,4236.44H4147v79.44l21.36-.72-1,4.08h51.84l-1-6,20.64-.72a103,103,0,0,1,1,14.16l-96-3.12,1-6.48-21.12.72v-12.48c-3.69-2.81-7.15-6-12-7.68-18.85-6.56-30.19,7.93-33.12,21.84l-24.24,1c1.2-24,25.81-51.89,54.72-41.76,6.48,2.27,10.7,6.36,15.6,10.08C4124.7,4272.37,4123.79,4254.13,4123.76,4236.44Z" transform="translate(-3833.12 -4236.44)"/><path class="cls-1" d="M4372.88,4236.44H4429v70.32l-23.28.72v-52.56h-32.88Z" transform="translate(-3833.12 -4236.44)"/><path class="cls-1" d="M4730,4248.68h19.44v30.72h44.64v13.92l-24.48.72v4.08H4725v44.4l-23.28-.72v-43.68h-23.52l-7-.48-11.52.48c-6.34-1.53-14.49-5.05-23.76-3.36l-8.4,2.4-2.64,2.4-25.2.48c-5.33,13.78,8.74,14.82,19.44,17.52,15.91,4,38.53,7.24,42.72,22.8-29,.4-56.34-2-74.16-13-7.67-4.72-16.24-14.09-12-27.36l24.72-.72c5-28.69,66.82-26.51,83.28-9.12l-4.32,6,20.4-.72.24-15.12,27.12-1Z" transform="translate(-3833.12 -4236.44)"/><path class="cls-1" d="M3883.52,4277c16.31-.32,33.14,4.92,39.84,13.92-.94,2.44-10.54,14.62-11.52,14.16-5.59-2.53-9.74-6.73-16.8-8.4-17.23-4.08-33.34,6-37,17.52l-25-.72v-.24c6.21-16.33,15.52-26.37,31.68-32.64l13.2-3.12Z" transform="translate(-3833.12 -4236.44)"/><path class="cls-1" d="M3984.8,4277c31.13-.35,46.7,17.1,51.84,43l17.52-.72v.72l-.24.72-32.88-1.2c-2.76-.41-7,.81-8.64-.72-3.73-8.2-4.59-14.67-11.76-19.2-11.16-7.06-26.6-2-32.4,6.24-2.43,3.43-3.57,7.55-5,12l-23.76-1v-1c5.32-17.39,13.41-29.12,29.52-35.52C3973.68,4278.49,3979.75,4279,3984.8,4277Z" transform="translate(-3833.12 -4236.44)"/><path class="cls-1" d="M4282.88,4328.12l-23.76-.72a41,41,0,0,1,2.16-14.64l-18.48.72c-3.77-17-24.27-24.47-40.08-13.2a28.23,28.23,0,0,0-8.64,11l-1.2,4.08-23.28.72c2.6-18.05,17.24-31.76,33.12-36.72,29.75-9.29,56.84,7.3,60.48,32.16l23.28-.72c5.29-26.55,46.35-41.86,76.08-28.8,4.82,2.12,10.23,4.91,13.2,8.88-.94,2.44-10.54,14.62-11.52,14.16-5.59-2.53-9.74-6.73-16.8-8.4-14.57-3.45-32.06,5.16-35.28,14.4l-25.2.72C4285.36,4316.83,4283.16,4321.18,4282.88,4328.12Z" transform="translate(-3833.12 -4236.44)"/><path class="cls-1" d="M4551.44,4336.76l-23.28-.72v-6.48c-11.91.15-22.53,3.34-31.92,5.52l-30-1v-.24l3.12-3.36c3.84-1.7,7.12-4.94,11.28-6.72,8.78-3.76,19.13-5.27,29.76-7.2,3.23-.59,17.17-.69,17.76-2.88-1.36-5-2.47-8.06-5-11.52V4302l23.28-.72-.48-.72c-3.26-1.46-6.12-3.46-10.32-4.32-17.68-3.64-25.14,7.88-39.84,7.92l-7.2-13.44c10.4-4.15,18.76-9.72,31.68-12.48,23.24-5,50.05,4.57,52.8,23.28l-24,.72v.24C4552.31,4311.27,4551.44,4324.75,4551.44,4336.76Z" transform="translate(-3833.12 -4236.44)"/><path class="cls-1" d="M4653.2,4297.16h.72l-5.28,7.44c-4-2.37-8.39-5.37-13.44-6.48v-.24Z" transform="translate(-3833.12 -4236.44)"/><path class="cls-1" d="M4477.28,4303.64h0Z" transform="translate(-3833.12 -4236.44)"/><path class="cls-1" d="M4471.52,4303.88l5.76.24h-.48l-4.32,2.16Z" transform="translate(-3833.12 -4236.44)"/><path class="cls-1" d="M4404.56,4306.52v25.68h-.24l-23-1v-24Z" transform="translate(-3833.12 -4236.44)"/><path class="cls-1" d="M4122.56,4316.84v6l-23.28-.72v-4.56Z" transform="translate(-3833.12 -4236.44)"/><path class="cls-1" d="M3895,4344.68l-23.76.72c-.1-6.12,1.07-10.55,1.92-15.36l25,.72A38.33,38.33,0,0,0,3895,4344.68Z" transform="translate(-3833.12 -4236.44)"/><path class="cls-1" d="M4003.28,4334.36l-1,6.24-24,1c.23-2.4.18-6.6,1.44-8.16Z" transform="translate(-3833.12 -4236.44)"/><path class="cls-1" d="M4094,4337.24c-1.26,15.34.62,29.5,9.36,36.24,11.24,8.68,29.48,2.39,35.52-6.72,1.27-1.91.54-23.72.48-28.08l23.28.72v55.44h-19.2l-1.68-11.52-5.76,4.8a48.46,48.46,0,0,1-17.52,8.4c-6.1,1.44-14.42.27-19.2-1.2-23-7.08-29.93-27.15-29.52-57.12l-17,.24-.24-2.64Z" transform="translate(-3833.12 -4236.44)"/><path class="cls-1" d="M3953.84,4341.32l24-1c-.33,21.22,4.81,34.31,22.56,37.44a23.46,23.46,0,0,0,17.52-4.32c6.49-4.8,9.19-13,10.8-22.8v-12.24c3.83,0,22-1.58,23.52-.24,2.81,6.85-1,21.65-2.64,26.4-7.13,20.25-30.39,39.65-60.48,30.72C3966.42,4388.58,3953.72,4371.13,3953.84,4341.32Z" transform="translate(-3833.12 -4236.44)"/><path class="cls-1" d="M4184,4340.12l96,3.12-1,8.64h-72c.68,19.18,20.29,31.61,42.72,26.4,4.53-1.05,16.9-7.07,18.72-7l7.44,14.4a82.77,82.77,0,0,1-19.44,8.88c-32.13,9.82-60.27-6.55-69.12-28.32C4184.38,4359,4183.82,4350.08,4184,4340.12Z" transform="translate(-3833.12 -4236.44)"/><path class="cls-1" d="M4299.2,4344l23.76.72c-.25,21.23,16.91,38.48,40.56,32.64,8.11-2,14.06-5.92,19.92-10.08l.48.24,9.36,14.64-.24.48-7.92,5.76a66.55,66.55,0,0,1-18.48,7.44c-6.92,1.73-17.84,1.73-25,.24C4315.84,4390.65,4298.5,4374.85,4299.2,4344Z" transform="translate(-3833.12 -4236.44)"/><path class="cls-1" d="M3870.56,4344.44c-.28,21.39,16.78,38.75,40.56,32.88,8.11-2,14.05-5.92,19.92-10.08l.48.24,9.36,14.64-.24.48-7.92,5.76a68.72,68.72,0,0,1-15.6,6.72c-30.09,9.19-57.86-7.73-66.24-27.12a66.55,66.55,0,0,1-3.84-14.4l-.48-8.16.24-.24Z" transform="translate(-3833.12 -4236.44)"/><path class="cls-1" d="M4421.36,4347.8l23.28,1c-.28,18.36,1.81,33.18,22.56,29l12-3.36,5.28,17.28c-5.7,1.06-11,3.61-17.28,4.8-23.92,4.55-39.26-6.3-44.16-22.8C4420.92,4366.58,4421.32,4357,4421.36,4347.8Z" transform="translate(-3833.12 -4236.44)"/><path class="cls-1" d="M4591.52,4394.84h-19.2l-1.68-12.24h-.24c-10.24,5.73-18.11,11.92-32.4,14.4-29.47,5.11-47.37-24.87-31.68-46.32l30,1.2c-10.86,2.06-19.86,17.2-7.68,24.48,14.26,8.53,31.44-3.86,39.6-9.36v-14.4l23.28,1Z" transform="translate(-3833.12 -4236.44)"/><path class="cls-1" d="M4664.24,4355.72h0Z" transform="translate(-3833.12 -4236.44)"/><path class="cls-1" d="M4665,4356l37,1c7.1,26.88-13.95,36.12-35.52,39.6a63.09,63.09,0,0,1-17.76.24c-16.3-2.8-28.45-7.55-39.84-14.88v-.24l10.32-14.64.48.48,12,6.48c7.12,3.06,14.78,4,23.76,5.52,11.18,1.88,29-3.65,24.24-15.12C4677.32,4358.87,4670.18,4358.61,4665,4356Z" transform="translate(-3833.12 -4236.44)"/><path class="cls-1" d="M4741.76,4358.36l23.52,1c0,22.76,27,22,43.92,15.12l4.32,17.28c-7.1,1.32-14.09,3.73-22.08,5C4760.14,4401.9,4742.31,4385.43,4741.76,4358.36Z" transform="translate(-3833.12 -4236.44)"/></svg>