<svg id="Layer_1" data-name="Layer 1" xmlns="http://www.w3.org/2000/svg" viewBox="0 0 225.75 219.03"><defs><style>.cls-1{fill-rule:evenodd;}</style></defs><path class="cls-1" d="M4310.5,4207.5c68.67-1.32,110.11,37.82,121,94,9.62,49.61-17.46,87.84-43,107-8.75,6.57-25.89,22.25-40,16,.34-21.88-2-40.47-6-55,31.22-3.66,57.93-26.23,49-65-1.85-8-9.15-14-11-20-2.05-6.6,1.07-23.37-1-31h-5c-8.76,3.05-18.16,10.18-25,12-9.57,2.55-23.64-6.15-37-4l-21,4c-9.86-2.17-16.88-14-31-11-1.3,7.23.62,26.21-1,31l-9,13c-6.23,17.44.22,42.53,8,53,9.42,12.68,24.83,11.56,40,19-2.35,4.32-4.82,12.29-9,15-25.37,12.64-29.42-22.85-52-21,2.12,6.91,7.31,7.15,11,12,12,15.71,12.84,28.66,43,24v22l-2,4c-54.88-1.71-99.17-85.6-75-147a115.6,115.6,0,0,1,65-65Z" transform="translate(-4207.74 -4207.47)"/></svg>