<svg id="Layer_1" data-name="Layer 1" xmlns="http://www.w3.org/2000/svg" viewBox="0 0 385 384.52"><defs><style>.cls-1,.cls-2{fill-rule:evenodd;}.cls-2{fill:#fff;}</style></defs><path class="cls-1" d="M4158.58,4127.42h306.48c15.33,0,27.74-.15,36.24,6.24a29.61,29.61,0,0,1,10.08,14.88c1.87,6.17,1,14.46,1,22.32V4426.7c0,28.76,4.82,64.86-11.52,77.76a34.16,34.16,0,0,1-12,6.24c-6.79,1.84-17,.72-25,.72H4208.5c-39,0-70,6.31-79.2-25.2-2.18-7.5-1-18.83-1-27.84v-287c0-10.83-.35-21.14,3.6-27.84a33.52,33.52,0,0,1,18-14.4Z" transform="translate(-4128 -4127.42)"/><path class="cls-2" d="M4220.26,4191.5l-8.16,1.44a27.81,27.81,0,0,0-17.52,16.32c-7.86,20.11,7.35,44.37,28.32,41.28,13.55-2,21.83-6.54,26.4-17.28C4258.91,4210.71,4242,4191.29,4220.26,4191.5Z" transform="translate(-4128 -4127.42)"/><path class="cls-2" d="M4335.46,4276.46h-55v170.88h55V4372.7c0-22.35-1.76-33.76,8.4-46.56,4.48-5.65,13.78-11.83,25.44-9.84,25.56,4.37,24.24,29,24.24,58.8v72.24h55v-68.4c0-45.84-.17-78.54-28.32-96.48-8.42-5.36-24.33-12.42-40.08-9.84-7.2,1.18-13.49,2.09-19.2,4.56a52.54,52.54,0,0,0-19.44,15.12l-6,7.92Z" transform="translate(-4128 -4127.42)"/><path class="cls-2" d="M4192.66,4276.46v170.88h54.72V4276.46Z" transform="translate(-4128 -4127.42)"/></svg>