<svg id="Layer_1" data-name="Layer 1" xmlns="http://www.w3.org/2000/svg" xmlns:xlink="http://www.w3.org/1999/xlink" viewBox="0 0 385.6 158.6"><defs><style>.cls-1,.cls-2,.cls-3,.cls-4,.cls-5,.cls-6{fill-rule:evenodd;}.cls-1{fill:url(#Blue);}.cls-2{fill:url(#Blue-2);}.cls-3{fill:url(#Blue-3);}.cls-4{fill:url(#Blue-4);}.cls-5{fill:url(#Blue-5);}.cls-6{fill:url(#Blue-6);}</style><linearGradient id="Blue" x1="853.86" y1="491.82" x2="1152.82" y2="491.82" gradientUnits="userSpaceOnUse"><stop offset="0" stop-color="#2bc4f3"/><stop offset="0.5" stop-color="#00aeee"/><stop offset="1" stop-color="#0095da"/></linearGradient><linearGradient id="Blue-2" x1="767.22" y1="515.09" x2="853.14" y2="515.09" xlink:href="#Blue"/><linearGradient id="Blue-3" x1="1056.18" y1="515.58" x2="1060.02" y2="515.58" xlink:href="#Blue"/><linearGradient id="Blue-4" x1="959.22" y1="577.36" x2="1136.58" y2="577.36" xlink:href="#Blue"/><linearGradient id="Blue-5" x1="855.3" y1="578.91" x2="946.5" y2="578.91" xlink:href="#Blue"/><linearGradient id="Blue-6" x1="769.86" y1="581.9" x2="856.98" y2="581.9" xlink:href="#Blue"/></defs><path class="cls-1" d="M1028.82,439h16.8v66.72c1.9.08,5.93.48,7-.48l4.08-5.52c5-6.3,12.93-11.08,21.12-14.16,29.42-11.08,54.34,7.63,59.52,30.48l-15.6-.24c-5.47-21.84-38.48-26.15-51.6-8.4h9.12c-.67,3.34-2,7.16-3.12,10.8H1138v-.72l-1.92-9.6v-.24l15.6.24c.72,6.58,1.85,15.27.48,22.32h-76.56l1.2,7.2-33.6,1V513.9h-14.4v-6.72c-4.11-3.13-7.85-6.68-13-8.88-11.93-5.13-27-1-32.88,7l8.88.24c-4.44,9.16-5.12,23.28-2.4,34.8l-17.76.48a180.34,180.34,0,0,1-.48-27.36h-11c.61,10.85.45,18.51-1.2,28.32l-18,.48V542c2.86-7.25,4.17-20.2,1.44-28.8h-17c-5.65-11.88-20.56-22.44-38.16-15.12-3.77,1.57-7.34,3.43-9.6,6.48l8.64.24c-5.44,13.05-4.54,25.71-.72,39.36l-17.76.48a83.08,83.08,0,0,1-1.92-31.92h-12c1-5.56,5-10.11,7.92-13.92,16.8-21.61,47.9-21.62,69.12-4.56,3.21,2.58,7.24,6.57,8.64,10.8l18.48.24,1.44,6,.48-.24c4.44-16.69,27.55-35.07,51.12-27.84,7.83,2.4,12.79,6.91,18.48,11.28h.24C1029.4,476.91,1028.85,457.82,1028.82,439Z" transform="translate(-767.22 -439.02)"/><path class="cls-2" d="M815.7,481.74c17.11-.31,28.9,6,37.44,14.4l-8.4,10.8-.72-.72c-5.14-2.47-9.08-6.78-15.12-8.88-13.51-4.69-26.6,1.41-35.28,6.24l.24.48h6.72c-5,8.2-8.1,23.73-3.6,35.28l4.32,8.4h-.48l-18.48.72c-4-8.48-7-24.66-3.36-36.24V512H767.22v-.24c6.3-13,16.1-22.5,30.72-27.12l11-2.4Z" transform="translate(-767.22 -439.02)"/><path class="cls-3" d="M1056.18,515.58h0Z" transform="translate(-767.22 -439.02)"/><path class="cls-4" d="M1047.54,593.82h-13.92l-1.44-13-3.12,3.12c-6.45,3.07-10.53,8.22-19,10.8C989.74,601,972.51,589,965.46,577.5c-3-5-4.21-10.68-6.24-16.8v-.24L977,560c4.68,27.95,40.56,26.76,53.76,7.44v-9.36l33.6-1c2.69,18.53,23.41,31.47,46.8,25.92l10.56-3.36,9.12-4.56,5.76,10.56-.48.72c-7.28,2.54-13.49,7.19-22.08,9.36-26.72,6.76-50.41-5.79-60-21.12-3.15-5-3.72-10.9-6.48-16.8Z" transform="translate(-767.22 -439.02)"/><path class="cls-5" d="M941.94,561.42h4.56c-4.65,13.73-12.25,24.7-25,30.24-31.22,13.6-57-4.18-66.24-27.12v-.24l17.76-.48c3.55,7.49,8.65,13.48,16.56,16.56,18.42,7.17,34.94-5.29,38.88-18.48Z" transform="translate(-767.22 -439.02)"/><path class="cls-6" d="M788.58,567.42l7.2,7.44c8.17,6,24.76,10,37.44,5l10.8-5.52,6-4.32,7,11c-8.36,6-16,11.48-28.08,14.16-24.69,5.49-55.39-10.26-59-27.12Z" transform="translate(-767.22 -439.02)"/></svg>