<svg id="Layer_1" data-name="Layer 1" xmlns="http://www.w3.org/2000/svg" viewBox="0 0 223 183.94"><defs><style>.cls-1{fill-rule:evenodd;}</style></defs><path class="cls-1" d="M4352.5,4229.5c23.08-.69,32,3.81,44,13,12.43-.18,21.32-5.55,30-10-3.6,11.75-11.05,17-18,25l23-6v1c-5.12,8-16.9,13.69-21,21-4,7.06-4,41.61-8,52-18.9,48.73-69,100.77-147,85-18.06-3.65-32.11-12-47-18v-1c27.82.84,52.9-4.87,66-19-19.47-3.58-38.37-13-41-33,5.14,1.64,14.07,1.4,18-1-20.14-3.73-34.45-21.54-35-45h1l18,5-10-10c-6.69-16.24-9.17-32.17-3-51,28.2,21.26,47.68,45.47,96,48C4309.1,4252.8,4334.79,4239.65,4352.5,4229.5Z" transform="translate(-4208.5 -4229.43)"/></svg>